<svg width="33" height="32" viewBox="0 0 33 32" fill="none" xmlns="http://www.w3.org/2000/svg">
<g clip-path="url(#clip0)">
<path d="M28.5 9.5H2V11L14.5 21H15.5L28 11L28.5 9.5Z" fill="url(#paint0_linear)"/>
<path d="M32.0969 7.1405L5.40371 4.76006C5.28212 4.74931 5.16145 4.788 5.06801 4.86794C4.97456 4.94788 4.91607 5.06231 4.90546 5.18619L4.58373 8.93474H1.58267C1.3287 8.93474 1.1228 9.14462 1.1228 9.40349V27.341C1.1228 27.5998 1.3287 27.8097 1.58267 27.8097H28.3778C28.6318 27.8097 28.8377 27.5998 28.8377 27.341V26.738L30.4028 26.8776C30.4165 26.8788 30.43 26.8794 30.4435 26.8794C30.6793 26.8794 30.8801 26.6955 30.9011 26.4515L32.515 7.64831C32.5371 7.39044 32.3499 7.16306 32.0969 7.1405ZM2.04255 9.87224H27.918C27.918 10.3131 27.7206 10.7202 27.3767 10.9892C27.2622 11.0787 15.95 19.9178 15.8202 20.0186C15.5756 20.2097 15.2859 20.3097 14.9802 20.3097C14.6746 20.3097 14.3846 20.2095 14.1419 20.0205C14.0274 19.9309 2.69795 11.0784 2.58648 10.9908C2.24004 10.7202 2.04255 10.3131 2.04255 9.87224ZM27.918 25.0005C27.889 24.9752 19.4395 18.3721 19.4395 18.3721L27.918 11.7476V25.0005ZM2.04255 26.8722C2.04255 26.4314 2.23992 26.0243 2.58384 25.7552L6.34019 22.8201C6.54174 22.6626 6.57988 22.3683 6.42536 22.1629C6.27085 21.9575 5.98217 21.9185 5.78062 22.0761L2.04255 24.997V11.7428C2.07958 11.7755 10.5209 18.3722 10.5209 18.3722L5.78062 22.0761C5.57908 22.2336 5.54094 22.5278 5.69546 22.7333C5.78602 22.8537 5.92263 22.9169 6.06078 22.9169C6.15839 22.9169 6.25674 22.8853 6.34019 22.8201L11.2768 18.9629L13.5829 20.7649C13.9878 21.0805 14.471 21.2473 14.9803 21.2473C15.49 21.2473 15.9731 21.0804 16.3775 20.7646C16.4133 20.7366 18.6837 18.9627 18.6837 18.9627C20.1869 20.1372 27.2564 25.6613 27.3733 25.7531L27.3762 25.7553C27.7205 26.0242 27.918 26.4313 27.918 26.8722H2.04255ZM30.0248 25.9028L28.8377 25.7969V9.40349C28.8377 9.14462 28.6318 8.93474 28.3778 8.93474H5.50703L5.78167 5.73488L31.5586 8.03362L30.0248 25.9028Z" fill="#313942"/>
<path d="M6.34019 22.8201L2.58384 25.7552C2.23992 26.0243 2.04255 26.4314 2.04255 26.8722H27.918C27.918 26.4313 27.7205 26.0242 27.3762 25.7553L27.3733 25.7531C27.2564 25.6613 20.1869 20.1372 18.6837 18.9627C18.6837 18.9627 16.4133 20.7366 16.3775 20.7646C15.9731 21.0804 15.49 21.2473 14.9803 21.2473C14.471 21.2473 13.9878 21.0805 13.5829 20.7649L11.2768 18.9629L6.34019 22.8201ZM6.34019 22.8201C6.54174 22.6626 6.57988 22.3683 6.42536 22.1629C6.27085 21.9575 5.98217 21.9185 5.78062 22.0761M6.34019 22.8201C6.25674 22.8853 6.15839 22.9169 6.06078 22.9169C5.92263 22.9169 5.78602 22.8537 5.69546 22.7333C5.54094 22.5278 5.57908 22.2336 5.78062 22.0761M5.78062 22.0761L2.04255 24.997V11.7428C2.07958 11.7755 10.5209 18.3722 10.5209 18.3722L5.78062 22.0761ZM32.0969 7.1405L5.40371 4.76006C5.28212 4.74931 5.16145 4.788 5.06801 4.86794C4.97456 4.94788 4.91607 5.06231 4.90546 5.18619L4.58373 8.93474H1.58267C1.3287 8.93474 1.1228 9.14462 1.1228 9.40349V27.341C1.1228 27.5998 1.3287 27.8097 1.58267 27.8097H28.3778C28.6318 27.8097 28.8377 27.5998 28.8377 27.341V26.738L30.4028 26.8776C30.4165 26.8788 30.43 26.8794 30.4435 26.8794C30.6793 26.8794 30.8801 26.6955 30.9011 26.4515L32.515 7.64831C32.5371 7.39044 32.3499 7.16306 32.0969 7.1405ZM2.04255 9.87224H27.918C27.918 10.3131 27.7206 10.7202 27.3767 10.9892C27.2622 11.0787 15.95 19.9178 15.8202 20.0186C15.5756 20.2097 15.2859 20.3097 14.9802 20.3097C14.6746 20.3097 14.3846 20.2095 14.1419 20.0205C14.0274 19.9309 2.69795 11.0784 2.58648 10.9908C2.24004 10.7202 2.04255 10.3131 2.04255 9.87224ZM27.918 25.0005C27.889 24.9752 19.4395 18.3721 19.4395 18.3721L27.918 11.7476V25.0005ZM30.0248 25.9028L28.8377 25.7969V9.40349C28.8377 9.14462 28.6318 8.93474 28.3778 8.93474H5.50703L5.78167 5.73488L31.5586 8.03362L30.0248 25.9028Z" stroke="#313942" stroke-width="0.5"/>
</g>
<defs>
<linearGradient id="paint0_linear" x1="2" y1="14.5312" x2="28.5045" y2="14.7968" gradientUnits="userSpaceOnUse">
<stop stop-color="#FA8A72"/>
<stop offset="1" stop-color="#FF685F"/>
</linearGradient>
<clipPath id="clip0">
<rect width="32.8889" height="32" fill="white"/>
</clipPath>
</defs>
</svg>
