<svg width="32" height="32" viewBox="0 0 32 32" fill="none" xmlns="http://www.w3.org/2000/svg">
<path d="M26.8 15.2002H4.80005L0.800049 30.8002H30.8L26.8 15.2002Z" fill="white"/>
<path d="M23.2 9.9998L16.4 21.9998H15.6L8.80005 9.9998L9.20005 5.5998L12 1.9998L16.4 0.799805L19.6 1.9998L23.2 5.5998V9.9998Z" fill="url(#paint0_linear)"/>
<ellipse cx="16.0001" cy="8.0001" rx="2.4" ry="2.4" fill="white"/>
<path d="M19.4271 7.83605C19.4271 5.94621 17.8897 4.40869 15.9999 4.40869C14.11 4.40869 12.5725 5.94621 12.5725 7.83605C12.5725 9.72589 14.11 11.2633 15.9999 11.2633C17.8896 11.2634 19.4271 9.72589 19.4271 7.83605ZM14.1052 7.83605C14.1052 6.79133 14.9551 5.94141 15.9999 5.94141C17.0445 5.94141 17.8944 6.79133 17.8944 7.83605C17.8944 8.88069 17.0445 9.73062 15.9999 9.73062C14.9551 9.73068 14.1052 8.88076 14.1052 7.83605Z" fill="#313942"/>
<path d="M31.637 31.052L27.7556 15.1407C27.6718 14.7975 27.3643 14.556 27.011 14.556H21.8604C23.3628 11.6896 24.1229 9.5317 24.1229 8.12313C24.123 3.644 20.4789 0 15.9998 0C11.5207 0 7.87672 3.644 7.87672 8.12313C7.87672 9.5317 8.63681 11.6896 10.1393 14.556H4.98841C4.63509 14.556 4.32761 14.7975 4.24391 15.1408L0.362675 31.052C0.306897 31.2806 0.359209 31.522 0.504484 31.707C0.649759 31.892 0.871937 32 1.10718 32H30.8924C31.1276 32 31.3498 31.892 31.4951 31.707C31.6404 31.5221 31.6927 31.2806 31.637 31.052ZM15.9998 1.53272C19.6337 1.53272 22.5903 4.48913 22.5903 8.12313C22.5903 10.9682 18.2919 17.8814 15.9998 21.2548C13.7076 17.8814 9.40944 10.9683 9.40944 8.1232C9.40944 4.48919 12.3658 1.53272 15.9998 1.53272ZM2.08298 30.4673L5.59031 16.0887H10.975C11.1927 16.4738 11.4214 16.8694 11.6617 17.2761C13.4955 20.3787 15.3553 23.0177 15.3739 23.044C15.5175 23.2473 15.751 23.3682 15.9999 23.3682C16.2488 23.3682 16.4822 23.2473 16.6259 23.044C16.6444 23.0177 18.5042 20.3787 20.338 17.2761C20.5783 16.8695 20.8071 16.4738 21.0247 16.0887H26.4093L29.9168 30.4673H2.08298V30.4673Z" fill="#313942"/>
<defs>
<linearGradient id="paint0_linear" x1="8.80005" y1="10.0748" x2="23.2038" y2="10.1173" gradientUnits="userSpaceOnUse">
<stop stop-color="#FA8A72"/>
<stop offset="1" stop-color="#FF685F"/>
</linearGradient>
</defs>
</svg>
