<svg width="32" height="32" viewBox="0 0 32 32" fill="none" xmlns="http://www.w3.org/2000/svg">
<g clip-path="url(#clip0)">
<path d="M14 8L16.5 12L16 14L14.5 16L17.5 15.5L19.5 14L23 15L26.5 14L29.5 12L31 9V6L27.5 2L20.5 1L16 4L14 8Z" fill="url(#paint0_linear)"/>
<path d="M1.82566 6.34135C0.867649 7.29943 0.276061 8.57278 0.0755086 10.1182C-0.110238 11.5492 0.0448954 13.1533 0.53664 14.8858C1.53053 18.3877 3.78303 22.0213 6.87916 25.1175C9.97156 28.2099 13.597 30.4506 17.0877 31.4268C18.3221 31.772 19.4914 31.9453 20.58 31.9453C21.0125 31.9453 21.4325 31.9179 21.8384 31.8631C23.3763 31.6553 24.6415 31.0644 25.5991 30.1069L28.0562 27.6497C28.3613 27.3448 28.5293 26.9393 28.5293 26.5079C28.5293 26.0766 28.3612 25.6711 28.0564 25.3663L22.183 19.4929C21.8915 19.2013 21.5084 19.0409 21.1043 19.0409C20.6757 19.0409 20.2636 19.217 19.9437 19.5369C19.9437 19.5369 16.6972 22.7817 15.6162 23.8645C15.595 23.8857 15.5477 23.9035 15.5029 23.8587C13.6461 22.0019 9.95775 18.314 8.09062 16.4468C8.0656 16.4218 8.07201 16.3714 8.09488 16.3484C9.17895 15.2644 12.425 12.0182 12.425 12.0182C12.7267 11.7165 12.8979 11.3204 12.9071 10.9028C12.9168 10.4701 12.7522 10.0619 12.4439 9.75375L6.57043 3.88036C6.26543 3.5753 5.85999 3.40723 5.42861 3.40723C4.99729 3.40723 4.59185 3.57523 4.28698 3.88023C4.28698 3.88023 2.44092 5.72609 1.82566 6.34135ZM8.75717 13.378L2.91439 7.5362C2.89872 7.52052 2.89078 7.50138 2.89078 7.47924C2.89078 7.4571 2.89872 7.43796 2.91439 7.42228L5.37178 4.96483C5.38739 4.94922 5.40653 4.94122 5.42861 4.94122C5.45075 4.94122 5.46982 4.94915 5.48556 4.96489C5.48556 4.96489 9.89159 9.33037 11.335 10.8105C11.3564 10.8325 11.3974 10.8762 11.3401 10.9334L8.88276 13.3908C8.88282 13.3908 8.82913 13.4426 8.75717 13.378ZM17.4297 24.2203L23.1414 29.9325C21.6846 30.5521 19.7186 30.5697 17.5008 29.9495C14.2599 29.0432 10.8729 26.942 7.96389 24.0329C5.04964 21.1186 2.93594 17.7214 2.01234 14.467C1.37793 12.2318 1.38674 10.2546 2.0038 8.79494L7.70325 14.4945C7.71599 14.5073 7.72919 14.5194 7.7422 14.5317L7.00395 15.2699C6.37041 15.9036 6.36221 16.8879 6.98521 17.5108L14.4766 25.0018C14.7668 25.2921 15.1424 25.4491 15.5423 25.4491C15.5701 25.4491 15.5981 25.4483 15.6261 25.4468C16.0198 25.4253 16.3984 25.2517 16.692 24.9579L17.4297 24.2203ZM18.571 23.0789C18.6743 22.9644 21.0151 20.6348 21.0151 20.6348C21.0449 20.6049 21.1031 20.5863 21.149 20.6279C21.1494 20.6283 21.0977 20.577 21.0981 20.5775L26.9717 26.451C26.9873 26.4666 26.9953 26.4858 26.9953 26.5079C26.9953 26.5299 26.9873 26.5491 26.9716 26.5648L24.5144 29.0221L24.5143 29.0222C24.483 29.0536 24.4319 29.0535 24.4005 29.0221L18.5729 23.1947C18.5208 23.1426 18.5517 23.1004 18.571 23.0789Z" fill="#313942"/>
<path d="M22.8364 0.0546875C17.7839 0.0546875 13.6734 3.55446 13.6734 7.85624C13.6734 9.71198 14.4372 11.4851 15.8334 12.8912C15.6187 13.5529 14.7772 14.7826 13.8801 15.1992C13.5878 15.3349 13.4115 15.6388 13.4388 15.9599C13.4661 16.2809 13.6912 16.5506 14.0022 16.6351C14.0651 16.6522 14.6416 16.8021 15.4741 16.8021C16.6444 16.8021 18.2729 16.5072 19.6368 15.1697C20.6581 15.4937 21.732 15.6577 22.8364 15.6577C27.889 15.6577 31.9996 12.1579 31.9996 7.85611C31.9996 3.55439 27.889 0.0546875 22.8364 0.0546875ZM22.8364 14.1238C21.7384 14.1238 20.6783 13.9355 19.6854 13.564C19.3835 13.451 19.0432 13.539 18.8337 13.7839C18.0324 14.7209 17.0514 15.0924 16.2078 15.2157C16.916 14.3725 17.4256 13.3582 17.42 12.6087C17.4184 12.395 17.3277 12.1917 17.1697 12.0477C15.9043 10.8939 15.2074 9.40531 15.2074 7.85618C15.2074 4.40029 18.6297 1.58861 22.8364 1.58861C27.0432 1.58861 30.4656 4.40022 30.4656 7.85618C30.4656 11.3122 27.0431 14.1238 22.8364 14.1238Z" fill="#313942"/>
</g>
<defs>
<linearGradient id="paint0_linear" x1="14" y1="7.5625" x2="31.0042" y2="7.64628" gradientUnits="userSpaceOnUse">
<stop stop-color="#FA8A72"/>
<stop offset="1" stop-color="#FF685F"/>
</linearGradient>
<clipPath id="clip0">
<rect width="32" height="32" fill="white"/>
</clipPath>
</defs>
</svg>
