<svg width="25" height="24" viewBox="0 0 25 24" fill="none" xmlns="http://www.w3.org/2000/svg">
<g clip-path="url(#clip0)">
<path d="M24.0726 5.35501L4.05272 3.56968C3.96153 3.56162 3.87103 3.59064 3.80094 3.65059C3.73086 3.71054 3.68699 3.79637 3.67903 3.88928L3.43774 6.70069H1.18694C0.996466 6.70069 0.842041 6.8581 0.842041 7.05225V20.5054C0.842041 20.6995 0.996466 20.8569 1.18694 20.8569H21.2833C21.4738 20.8569 21.6282 20.6995 21.6282 20.5054V20.0532L22.802 20.1578C22.8123 20.1587 22.8224 20.1592 22.8325 20.1592C23.0094 20.1592 23.16 20.0212 23.1757 19.8382L24.3862 5.73587C24.4028 5.54246 24.2624 5.37193 24.0726 5.35501ZM1.53185 7.40382H20.9384C20.9384 7.73443 20.7904 8.03982 20.5324 8.24157C20.4466 8.30864 11.9624 14.938 11.8651 15.0136C11.6817 15.1569 11.4644 15.2319 11.2351 15.2319C11.0059 15.2319 10.7884 15.1568 10.6063 15.015C10.5205 14.9478 2.0234 8.30841 1.9398 8.24274C1.67997 8.03982 1.53185 7.73447 1.53185 7.40382ZM20.9384 18.75C20.9167 18.731 14.5796 13.7787 14.5796 13.7787L20.9384 8.8103V18.75ZM1.53185 20.1538C1.53185 19.8232 1.67988 19.5178 1.93782 19.316L4.75508 17.1147C4.90624 16.9966 4.93485 16.7759 4.81896 16.6218C4.70307 16.4677 4.48657 16.4385 4.33541 16.5567L1.53185 18.7474V8.80674C1.55962 8.83125 7.89058 13.7788 7.89058 13.7788L4.33541 16.5567C4.18425 16.6748 4.15564 16.8955 4.27153 17.0496C4.33945 17.1399 4.44191 17.1873 4.54552 17.1873C4.61873 17.1873 4.6925 17.1636 4.75508 17.1147L8.45751 14.2218L10.1871 15.5733C10.4908 15.81 10.8532 15.9351 11.2352 15.9351C11.6175 15.9351 11.9798 15.8099 12.283 15.5731C12.3099 15.5521 14.0127 14.2217 14.0127 14.2217C15.1401 15.1026 20.4423 19.2456 20.5299 19.3145L20.5321 19.3161C20.7903 19.5178 20.9384 19.8231 20.9384 20.1538H1.53185ZM22.5186 19.4267L21.6282 19.3473V7.05225C21.6282 6.8581 21.4738 6.70069 21.2833 6.70069H4.13021L4.33619 4.30079L23.6689 6.02485L22.5186 19.4267Z" fill="#F3F3F3"/>
<path d="M4.75508 17.1147L1.93782 19.316C1.67988 19.5178 1.53185 19.8232 1.53185 20.1538H20.9384C20.9384 19.8231 20.7903 19.5178 20.5321 19.3161L20.5299 19.3145C20.4423 19.2456 15.1401 15.1026 14.0127 14.2217C14.0127 14.2217 12.3099 15.5521 12.283 15.5731C11.9798 15.8099 11.6175 15.9351 11.2352 15.9351C10.8532 15.9351 10.4908 15.81 10.1871 15.5733L8.45751 14.2218L4.75508 17.1147ZM4.75508 17.1147C4.90624 16.9966 4.93485 16.7759 4.81896 16.6218C4.70307 16.4677 4.48657 16.4385 4.33541 16.5567M4.75508 17.1147C4.6925 17.1636 4.61873 17.1873 4.54552 17.1873C4.44191 17.1873 4.33945 17.1399 4.27153 17.0496C4.15564 16.8955 4.18425 16.6748 4.33541 16.5567M4.33541 16.5567L1.53185 18.7474V8.80674C1.55962 8.83125 7.89058 13.7788 7.89058 13.7788L4.33541 16.5567ZM24.0726 5.35501L4.05272 3.56968C3.96153 3.56162 3.87103 3.59064 3.80094 3.65059C3.73086 3.71054 3.68699 3.79637 3.67903 3.88928L3.43774 6.70069H1.18694C0.996466 6.70069 0.842041 6.8581 0.842041 7.05225V20.5054C0.842041 20.6995 0.996466 20.8569 1.18694 20.8569H21.2833C21.4738 20.8569 21.6282 20.6995 21.6282 20.5054V20.0532L22.802 20.1578C22.8123 20.1587 22.8224 20.1592 22.8325 20.1592C23.0094 20.1592 23.16 20.0212 23.1757 19.8382L24.3862 5.73587C24.4028 5.54246 24.2624 5.37193 24.0726 5.35501ZM1.53185 7.40382H20.9384C20.9384 7.73443 20.7904 8.03982 20.5324 8.24157C20.4466 8.30864 11.9624 14.938 11.8651 15.0136C11.6817 15.1569 11.4644 15.2319 11.2351 15.2319C11.0059 15.2319 10.7884 15.1568 10.6063 15.015C10.5205 14.9478 2.0234 8.30841 1.9398 8.24274C1.67997 8.03982 1.53185 7.73447 1.53185 7.40382ZM20.9384 18.75C20.9167 18.731 14.5796 13.7787 14.5796 13.7787L20.9384 8.8103V18.75ZM22.5186 19.4267L21.6282 19.3473V7.05225C21.6282 6.8581 21.4738 6.70069 21.2833 6.70069H4.13021L4.33619 4.30079L23.6689 6.02485L22.5186 19.4267Z" stroke="#F3F3F3" stroke-width="0.5"/>
</g>
<defs>
<clipPath id="clip0">
<rect width="24.6667" height="24" fill="white"/>
</clipPath>
</defs>
</svg>
