<svg width="24" height="24" viewBox="0 0 24 24" fill="none" xmlns="http://www.w3.org/2000/svg">
<g clip-path="url(#clip0)">
<path d="M1.36912 4.75626C0.650614 5.47482 0.206924 6.42983 0.0565094 7.58887C-0.0828004 8.66213 0.0335495 9.8652 0.402358 11.1646C1.14778 13.791 2.83715 16.5163 5.15925 18.8384C7.47855 21.1577 10.1977 22.8382 12.8156 23.5703C13.7414 23.8292 14.6185 23.9592 15.4349 23.9592C15.7592 23.9592 16.0742 23.9387 16.3787 23.8976C17.5321 23.7418 18.481 23.2986 19.1992 22.5804L21.0421 20.7375C21.2709 20.5088 21.3969 20.2047 21.3969 19.8811C21.3969 19.5577 21.2708 19.2536 21.0422 19.025L16.6371 14.6199C16.4185 14.4012 16.1312 14.2809 15.8281 14.2809C15.5067 14.2809 15.1976 14.413 14.9577 14.6529C14.9577 14.6529 12.5228 17.0865 11.712 17.8986C11.6962 17.9146 11.6606 17.9279 11.627 17.8942C10.2344 16.5016 7.46819 13.7357 6.06784 12.3354C6.04908 12.3166 6.05388 12.2788 6.07104 12.2616C6.88409 11.4485 9.31863 9.01388 9.31863 9.01388C9.54488 8.78764 9.67334 8.49056 9.68024 8.17738C9.68749 7.85279 9.56404 7.54671 9.33279 7.31556L4.9277 2.91052C4.69895 2.68172 4.39487 2.55566 4.07133 2.55566C3.74784 2.55566 3.44376 2.68167 3.21512 2.91042C3.21512 2.91042 1.83057 4.29481 1.36912 4.75626ZM6.56775 10.0337L2.18567 5.65239C2.17392 5.64064 2.16797 5.62628 2.16797 5.60967C2.16797 5.59307 2.17392 5.57871 2.18567 5.56696L4.02871 3.72387C4.04042 3.71216 4.05478 3.70616 4.07133 3.70616C4.08794 3.70616 4.10225 3.71211 4.11405 3.72392C4.11405 3.72392 7.41857 6.99802 8.50113 8.10815C8.51719 8.12465 8.5479 8.15737 8.50499 8.20029L6.66194 10.0433C6.66199 10.0434 6.62173 10.0822 6.56775 10.0337ZM13.0721 18.1655L17.3559 22.4496C16.2633 22.9143 14.7888 22.9276 13.1255 22.4624C10.6948 21.7827 8.15458 20.2067 5.9728 18.025C3.78711 15.8392 2.20183 13.2913 1.50913 10.8505C1.03333 9.1741 1.03993 7.69117 1.50273 6.59645L5.77732 10.8711C5.78687 10.8807 5.79677 10.8898 5.80653 10.899L5.25284 11.4527C4.77769 11.9279 4.77153 12.6662 5.23878 13.1334L10.8573 18.7516C11.075 18.9693 11.3567 19.0871 11.6566 19.0871C11.6774 19.0871 11.6985 19.0865 11.7195 19.0854C12.0147 19.0692 12.2987 18.939 12.5189 18.7187L13.0721 18.1655ZM13.9282 17.3094C14.0056 17.2236 15.7612 15.4763 15.7612 15.4763C15.7836 15.4539 15.8272 15.4399 15.8616 15.4712C15.8619 15.4715 15.8231 15.433 15.8235 15.4333L20.2287 19.8385C20.2403 19.8502 20.2463 19.8646 20.2463 19.8811C20.2463 19.8977 20.2404 19.9121 20.2286 19.9239L18.3857 21.7669L18.3856 21.7669C18.3622 21.7904 18.3238 21.7904 18.3002 21.7669L13.9296 17.3963C13.8904 17.3572 13.9137 17.3256 13.9282 17.3094Z" fill="#F3F3F3"/>
<path d="M17.1272 0.0410156C13.3378 0.0410156 10.2549 2.66584 10.2549 5.89218C10.2549 7.28398 10.8278 8.61385 11.875 9.66841C11.7139 10.1647 11.0828 11.087 10.4099 11.3994C10.1907 11.5012 10.0585 11.7291 10.079 11.9699C10.0995 12.2107 10.2683 12.413 10.5015 12.4763C10.5487 12.4891 10.9811 12.6016 11.6055 12.6016C12.4832 12.6016 13.7046 12.3804 14.7275 11.3772C15.4935 11.6203 16.2988 11.7433 17.1272 11.7433C20.9166 11.7433 23.9996 9.11842 23.9996 5.89208C23.9996 2.66579 20.9166 0.0410156 17.1272 0.0410156ZM17.1272 10.5929C16.3037 10.5929 15.5086 10.4516 14.7639 10.173C14.5375 10.0883 14.2823 10.1543 14.1252 10.3379C13.5242 11.0407 12.7884 11.3193 12.1557 11.4118C12.6868 10.7794 13.0691 10.0187 13.0649 9.45652C13.0637 9.29625 12.9956 9.14378 12.8772 9.03578C11.9281 8.17041 11.4054 7.05398 11.4054 5.89213C11.4054 3.30022 13.9722 1.19146 17.1272 1.19146C20.2823 1.19146 22.8491 3.30017 22.8491 5.89213C22.8491 8.48415 20.2822 10.5929 17.1272 10.5929Z" fill="#F3F3F3"/>
</g>
<defs>
<clipPath id="clip0">
<rect width="24" height="24" fill="white"/>
</clipPath>
</defs>
</svg>
