<svg width="24" height="24" viewBox="0 0 24 24" fill="none" xmlns="http://www.w3.org/2000/svg">
<path d="M14.5709 5.87716C14.5709 4.45978 13.4178 3.30664 12.0004 3.30664C10.5831 3.30664 9.42993 4.45978 9.42993 5.87716C9.42993 7.29454 10.5831 8.44762 12.0004 8.44762C13.4178 8.44767 14.5709 7.29454 14.5709 5.87716ZM10.5795 5.87716C10.5795 5.09362 11.2169 4.45618 12.0004 4.45618C12.7839 4.45618 13.4214 5.09362 13.4214 5.87716C13.4214 6.66064 12.7839 7.29809 12.0004 7.29809C11.2169 7.29814 10.5795 6.66069 10.5795 5.87716Z" fill="#F3F3F3"/>
<path d="M23.728 23.289L20.8169 11.3555C20.7541 11.0981 20.5235 10.917 20.2585 10.917H16.3955C17.5224 8.76717 18.0924 7.14878 18.0924 6.09235C18.0925 2.733 15.3594 0 12.0001 0C8.64079 0 5.90778 2.733 5.90778 6.09235C5.90778 7.14878 6.47786 8.76717 7.6047 10.917H3.74156C3.47656 10.917 3.24595 11.0981 3.18318 11.3556L0.27225 23.289C0.230417 23.4604 0.269651 23.6415 0.378607 23.7802C0.487564 23.919 0.654197 24 0.830626 24H23.1695C23.3459 24 23.5126 23.919 23.6216 23.7802C23.7306 23.6415 23.7698 23.4604 23.728 23.289ZM12.0001 1.14954C14.7255 1.14954 16.9429 3.36685 16.9429 6.09235C16.9429 8.22614 13.7192 13.4111 12.0001 15.9411C10.281 13.4111 7.05732 8.22619 7.05732 6.0924C7.05732 3.3669 9.27463 1.14954 12.0001 1.14954ZM1.56248 22.8505L4.19297 12.0665H8.2315C8.39473 12.3553 8.56631 12.6521 8.74654 12.957C10.1219 15.2841 11.5167 17.2633 11.5307 17.283C11.6384 17.4355 11.8135 17.5262 12.0001 17.5262C12.1868 17.5262 12.3619 17.4355 12.4696 17.283C12.4835 17.2633 13.8784 15.2841 15.2538 12.957C15.434 12.6521 15.6056 12.3554 15.7688 12.0665H19.8072L22.4378 22.8505H1.56248V22.8505Z" fill="#F3F3F3"/>
</svg>
