<svg width="16" height="16" viewBox="0 0 16 16" fill="none" xmlns="http://www.w3.org/2000/svg">
<path d="M14.7226 0.449646H1.2793V3.19911H14.7226V0.449646Z" fill="url(#paint0_linear)"/>
<path d="M14.7183 3.19482L9.71613 8.65949V12.6424L6.28144 15.5674V8.65949L1.2793 3.19482H14.7183Z" fill="#F3F3F3"/>
<path d="M14.7172 0H1.27825C1.03842 0 0.845703 0.20985 0.845703 0.449679V3.19914C0.845703 3.21199 0.845703 3.22912 0.849986 3.24197C0.849986 3.24625 0.854268 3.25482 0.854268 3.2591C0.854268 3.26767 0.858551 3.27195 0.858551 3.28051C0.858551 3.28908 0.862834 3.29336 0.862834 3.30193C0.862834 3.30621 0.867116 3.31478 0.867116 3.31906C0.871399 3.32762 0.871399 3.33191 0.875682 3.34047C0.875682 3.34475 0.879964 3.34904 0.879964 3.3576C0.884247 3.36617 0.884247 3.37045 0.88853 3.37901C0.892812 3.3833 0.892812 3.38758 0.897095 3.39615C0.901378 3.40471 0.90566 3.40899 0.90566 3.41328C0.909943 3.41756 0.914226 3.42612 0.914226 3.43041C0.918508 3.43469 0.922791 3.44325 0.927074 3.44754C0.931356 3.45182 0.935639 3.46039 0.939922 3.46467C0.944204 3.46895 0.948487 3.47323 0.95277 3.4818C0.957052 3.48608 0.961335 3.48608 0.961335 3.49036L5.85641 8.82655V15.5717C5.85641 15.7388 5.95063 15.8887 6.10052 15.9615C6.1562 15.9872 6.21615 16 6.28039 16C6.37889 16 6.4774 15.9657 6.55877 15.8972L9.99346 12.9722C10.0877 12.8908 10.1391 12.7709 10.1391 12.6467V8.82655L15.0341 3.48608C15.0384 3.4818 15.0384 3.4818 15.0427 3.47752C15.047 3.47323 15.0513 3.46895 15.0556 3.46039C15.0598 3.4561 15.0641 3.44754 15.0684 3.44325C15.0727 3.43897 15.077 3.43041 15.0813 3.42612C15.0855 3.42184 15.0898 3.41328 15.0898 3.40899C15.0941 3.40471 15.0984 3.39615 15.1027 3.39186C15.1069 3.38758 15.1069 3.3833 15.1112 3.37473C15.1155 3.36617 15.1198 3.36188 15.1198 3.35332C15.1198 3.34904 15.1241 3.34475 15.1241 3.33619C15.1284 3.32762 15.1284 3.32334 15.1326 3.31478C15.1326 3.31049 15.1369 3.30193 15.1369 3.29764C15.1369 3.28908 15.1412 3.2848 15.1412 3.27623C15.1412 3.26767 15.1455 3.26338 15.1455 3.25482C15.1455 3.25054 15.1498 3.24197 15.1498 3.23769C15.1498 3.22484 15.1541 3.21199 15.1541 3.19486V0.449679C15.1498 0.20985 14.9571 0 14.7172 0ZM14.2932 0.856531V2.78373H1.70223V0.856531H14.2932ZM9.39817 8.37687C9.32536 8.45396 9.28254 8.55246 9.28254 8.65953V12.4454L6.71294 14.6424V8.65953C6.71294 8.55246 6.67012 8.45824 6.59731 8.37687L2.25041 3.64026H13.7451L9.39817 8.37687Z" fill="black"/>
<defs>
<linearGradient id="paint0_linear" x1="1.2793" y1="1.65254" x2="14.7201" y2="1.93823" gradientUnits="userSpaceOnUse">
<stop stop-color="#FA8A72"/>
<stop offset="1" stop-color="#FF685F"/>
</linearGradient>
</defs>
</svg>
