<svg width="182" height="34" viewBox="0 0 182 34" fill="none" xmlns="http://www.w3.org/2000/svg">
<path d="M0 20.009V10.1555H1.91519V18.3298H6.93911V20.009H0Z" fill="#313942"/>
<path d="M10.6325 20.009V10.1555H12.5477V20.009H10.6325Z" fill="#313942"/>
<path d="M25.4146 20.009V13.5418L22.8888 18.3575H21.8202L19.2943 13.5418V20.009H17.3791V10.1555H19.4331L22.3475 15.7623L25.2897 10.1555H27.3298V20.009H25.4146Z" fill="#313942"/>
<path d="M39.0046 18.3298V20.009H32.1627V10.1555H38.8797V11.8347H34.0779V14.2079H38.2275V15.7623H34.0779V18.3298H39.0046Z" fill="#313942"/>
<path d="M49.1439 12.7368C49.0606 12.6443 48.8848 12.524 48.6165 12.376C48.3482 12.2187 48.0244 12.0799 47.645 11.9596C47.2749 11.8301 46.891 11.7654 46.4931 11.7654C45.4476 11.7654 44.9249 12.1354 44.9249 12.8756C44.9249 13.1439 45.0082 13.3567 45.1747 13.514C45.3412 13.6713 45.5911 13.8055 45.9241 13.9165C46.2572 14.0275 46.6736 14.1478 47.1732 14.2773C47.8208 14.4439 48.3806 14.6381 48.8524 14.8602C49.3335 15.0822 49.699 15.3783 49.9488 15.7484C50.2079 16.1092 50.3374 16.5903 50.3374 17.1917C50.3374 17.8949 50.1662 18.4639 49.8239 18.8988C49.4908 19.3244 49.0467 19.6343 48.4916 19.8286C47.9365 20.0229 47.3351 20.12 46.6874 20.12C45.9473 20.12 45.2117 20.009 44.4808 19.787C43.7591 19.5557 43.1161 19.2411 42.5517 18.8432L43.3983 17.1917C43.4816 17.275 43.6296 17.386 43.8424 17.5248C44.0552 17.6543 44.3143 17.7885 44.6196 17.9273C44.9249 18.0568 45.258 18.1678 45.6188 18.2604C45.9796 18.3529 46.3451 18.3991 46.7152 18.3991C47.7699 18.3991 48.2973 18.0614 48.2973 17.386C48.2973 17.0992 48.1909 16.8679 47.9781 16.6921C47.7653 16.5163 47.4646 16.3683 47.076 16.248C46.6967 16.1277 46.2526 15.9936 45.7437 15.8456C45.1146 15.6698 44.5918 15.4755 44.1755 15.2627C43.7684 15.0406 43.4631 14.7677 43.2595 14.4438C43.056 14.1108 42.9542 13.6898 42.9542 13.1809C42.9542 12.5055 43.1115 11.9411 43.426 11.4878C43.7499 11.0252 44.1847 10.6782 44.7306 10.4469C45.2765 10.2064 45.8825 10.0861 46.5486 10.0861C47.2333 10.0861 47.8717 10.1971 48.4638 10.4192C49.056 10.6412 49.5648 10.8957 49.9904 11.1825L49.1439 12.7368Z" fill="#313942"/>
<path d="M69.9167 20.0784C69.1951 20.0784 68.5382 19.9396 67.946 19.6621C67.3632 19.3845 66.8589 19.0098 66.4333 18.5379C66.017 18.0568 65.6931 17.5202 65.4618 16.9281C65.2305 16.3267 65.1149 15.7114 65.1149 15.0822C65.1149 14.4253 65.2352 13.8008 65.4757 13.2087C65.7163 12.6073 66.054 12.0753 66.4888 11.6127C66.9237 11.1408 67.4325 10.7707 68.0154 10.5024C68.6076 10.2249 69.2552 10.0861 69.9584 10.0861C70.6708 10.0861 71.3185 10.2295 71.9013 10.5163C72.4935 10.8031 72.9977 11.1871 73.4141 11.6682C73.8397 12.1493 74.1635 12.6906 74.3855 13.292C74.6168 13.8841 74.7325 14.4901 74.7325 15.11C74.7325 15.7577 74.6122 16.3822 74.3717 16.9836C74.1311 17.5757 73.7934 18.1077 73.3586 18.5796C72.933 19.0422 72.4241 19.4076 71.8319 19.6759C71.2491 19.9442 70.6107 20.0784 69.9167 20.0784ZM67.0578 15.0822C67.0578 15.6559 67.1689 16.1925 67.3909 16.6921C67.6222 17.1917 67.9507 17.5988 68.3763 17.9134C68.8111 18.228 69.3292 18.3853 69.9306 18.3853C70.5505 18.3853 71.0733 18.2234 71.4989 17.8995C71.9245 17.5757 72.2483 17.1594 72.4703 16.6505C72.6924 16.1416 72.8034 15.6189 72.8034 15.0822C72.8034 14.5086 72.6878 13.972 72.4565 13.4724C72.2252 12.9728 71.8921 12.5703 71.4572 12.265C71.0316 11.9504 70.5228 11.7931 69.9306 11.7931C69.3107 11.7931 68.788 11.955 68.3624 12.2788C67.9368 12.6027 67.613 13.019 67.3909 13.5279C67.1689 14.0275 67.0578 14.5456 67.0578 15.0822Z" fill="#313942"/>
<path d="M80.3968 13.6805V20.009H78.4816V10.1555H80.0082L85.1015 16.6505V10.1694H87.0167V20.009H85.4207L80.3968 13.6805Z" fill="#313942"/>
<path d="M98.6841 18.3298V20.009H91.8421V10.1555H98.5592V11.8347H93.7573V14.2079H97.9069V15.7623H93.7573V18.3298H98.6841Z" fill="#313942"/>
<path d="M62.539 20.8638L54.7977 23.3176C54.5211 23.1024 53.795 20.5803 53.6309 19.9666C53.4185 19.1728 53.0789 17.0947 53.1563 15.1559C53.2336 13.2171 53.6002 11.2638 54.0189 10.0536C54.4375 8.84328 55.3671 6.89914 55.9802 5.75126C56.5933 4.60339 58.012 2.82677 58.591 2.37227C59.17 1.91777 60.0814 1.82613 60.2555 1.75401C60.4296 1.68189 60.4478 1.49551 60.6219 1.42339C60.7961 1.35128 61.4677 1.20389 61.4428 1.3453C61.4179 1.48671 61.5286 1.60764 61.6711 1.63202C61.8135 1.65639 61.9086 1.3668 61.895 1.27702C61.8815 1.18725 61.7843 1.1561 61.7707 1.0664C61.7572 0.976706 62.0535 0.794303 62.1055 0.832336C62.1575 0.870369 62.0104 1.12196 62.1461 1.10147C62.2818 1.08099 62.4741 0.822548 62.6165 0.846926C62.759 0.871303 62.6504 1.07123 62.6639 1.16095C62.6775 1.25067 62.4264 1.42622 62.44 1.51594C62.4535 1.60567 62.5824 1.54032 62.7181 1.51984C62.8538 1.49936 62.795 1.41646 62.8855 1.40281C62.9759 1.38915 62.9578 1.57539 63.0482 1.56174C63.1387 1.54808 63.4146 1.23115 63.5186 1.30722C63.6226 1.38328 63.2947 1.66218 63.3851 1.64853C63.4756 1.63487 63.7017 1.60073 63.6701 1.69731C63.6384 1.79389 63.8464 1.94599 63.9368 1.93234C64.0273 1.91868 64.69 1.40566 64.8573 1.28863C65.0247 1.1716 65.045 1.30618 65.0586 1.3959C65.0721 1.48562 63.8621 2.35654 63.792 2.50478C63.7218 2.65302 63.9298 2.80515 63.8981 2.9017C63.8664 2.99825 63.7828 3.05676 63.6923 3.07042C63.6019 3.08408 63.6289 3.26354 63.7262 3.29475C63.8234 3.32595 65.6371 2.77685 65.7479 2.89778C65.8586 3.0187 65.7885 3.16694 65.802 3.25666C65.8156 3.34639 66.338 3.12987 66.442 3.20594C66.546 3.282 66.2497 3.46438 66.2633 3.5541C66.2768 3.64382 66.4442 3.52679 66.5346 3.51313C66.6251 3.49948 66.8783 3.64478 66.9688 3.63113C67.0592 3.61747 67.5727 3.03524 67.7084 3.01476C67.8441 2.99427 67.8961 3.03231 67.9096 3.12203C67.9231 3.21175 67.274 3.81449 67.4866 3.69063C67.6992 3.56677 67.8235 3.77742 67.7466 3.88079C67.6697 3.98417 66.2289 5.16522 66.1136 5.32029C65.9982 5.47535 66.1542 5.58945 66.2899 5.56897C66.4256 5.54849 67.9432 4.26406 68.0789 4.24357C68.2146 4.22309 68.2349 4.35767 68.2032 4.45422C68.1716 4.55077 67.4433 4.93601 67.4116 5.03256C67.38 5.12911 67.3483 5.22566 67.2714 5.32904C67.1894 5.43917 67.1705 5.61548 67.0546 5.68899C66.1976 6.23232 64.9089 7.13379 63.7808 8.58728C62.8126 9.83463 61.7272 11.3192 61.3947 14.1292C61.0297 17.2129 61.9 19.1859 62.539 20.8638Z" fill="url(#paint0_linear)"/>
<path d="M63.1978 22.3661L60.2727 23.536L63.3083 31.1258L61.543 31.8318L58.5074 24.2421L55.5823 25.412L54.6826 23.1625L62.2981 20.1166L63.1978 22.3661Z" fill="#313942"/>
<path d="M112.76 20.1451C111.974 20.1451 111.303 20.0156 110.748 19.7565C110.202 19.4882 109.758 19.1227 109.416 18.6601C109.083 18.1975 108.838 17.6748 108.68 17.0919C108.523 16.4997 108.444 15.8845 108.444 15.2461V10.2222H110.36V15.2461C110.36 15.6532 110.397 16.051 110.471 16.4396C110.554 16.8189 110.688 17.1613 110.873 17.4666C111.058 17.7719 111.303 18.0125 111.609 18.1883C111.914 18.3641 112.293 18.4519 112.747 18.4519C113.209 18.4519 113.593 18.3641 113.898 18.1883C114.213 18.0032 114.458 17.758 114.634 17.4527C114.819 17.1474 114.953 16.8051 115.036 16.4257C115.12 16.0371 115.161 15.6439 115.161 15.2461V10.2222H117.063V15.2461C117.063 15.9215 116.979 16.5553 116.813 17.1474C116.656 17.7395 116.401 18.2623 116.05 18.7156C115.707 19.1597 115.263 19.5113 114.717 19.7704C114.171 20.0202 113.519 20.1451 112.76 20.1451Z" fill="#313942"/>
<path d="M121.024 20.0757V10.236H122.939V14.913L127.075 10.2222H129.184L125.409 14.5938L129.42 20.0757H127.255L124.188 15.829L122.939 17.1335V20.0757H121.024Z" fill="#313942"/>
<path d="M132.588 20.0757V10.2222H136.945C137.399 10.2222 137.815 10.3147 138.195 10.4997C138.583 10.6848 138.916 10.9346 139.194 11.2492C139.481 11.5637 139.698 11.9153 139.846 12.3039C140.003 12.6925 140.082 13.0903 140.082 13.4974C140.082 13.9138 140.008 14.3162 139.86 14.7048C139.721 15.0842 139.518 15.4172 139.249 15.7041C138.981 15.9909 138.666 16.2129 138.306 16.3702L140.554 20.0757H138.444L136.418 16.7727H134.503V20.0757H132.588ZM134.503 15.0934H136.904C137.144 15.0934 137.357 15.024 137.542 14.8852C137.727 14.7372 137.875 14.5429 137.986 14.3024C138.097 14.0618 138.153 13.7935 138.153 13.4974C138.153 13.1829 138.088 12.9099 137.959 12.6786C137.829 12.4381 137.663 12.2484 137.459 12.1096C137.265 11.9708 137.052 11.9014 136.821 11.9014H134.503V15.0934Z" fill="#313942"/>
<path d="M147.271 10.2222H149.214L152.837 20.0757H150.866L149.95 17.6193H146.508L145.606 20.0757H143.635L147.271 10.2222ZM149.603 16.2731L148.243 12.2068L146.827 16.2731H149.603Z" fill="#313942"/>
<path d="M155.95 20.0757V10.2222H157.865V20.0757H155.95Z" fill="#313942"/>
<path d="M163.868 13.7472V20.0757H161.953V10.2222H163.479L168.573 16.7172V10.236H170.488V20.0757H168.892L163.868 13.7472Z" fill="#313942"/>
<path d="M181.412 18.3964V20.0757H174.57V10.2222H181.287V11.9014H176.485V14.2746H180.634V15.829H176.485V18.3964H181.412Z" fill="#313942"/>
<defs>
<linearGradient id="paint0_linear" x1="59.2304" y1="22.1804" x2="64.1188" y2="1.49133" gradientUnits="userSpaceOnUse">
<stop stop-color="#FA8A72"/>
<stop offset="1" stop-color="#FF685F"/>
</linearGradient>
</defs>
</svg>
